<svg xmlns="http://www.w3.org/2000/svg" viewBox="0 0 64 64" width="64" height="64" role="img" aria-label="SelfPost">
<!-- SelfPost · https://codeberg.org/mix/selfpost · AGPL-3.0
     Шрифт: IBM Plex Sans (OFL). Перед публикацией текст перевести в контуры. -->
<path d="M7.80 5.00 L13.00 5.00 A2.8 2.8 0 0 0 18.60 5.00 L23.80 5.00 A2.8 2.8 0 0 0 29.40 5.00 L34.60 5.00 A2.8 2.8 0 0 0 40.20 5.00 L45.40 5.00 A2.8 2.8 0 0 0 51.00 5.00 L56.20 5.00 A2.8 2.8 0 0 0 59.00 7.80 L59.00 13.00 A2.8 2.8 0 0 0 59.00 18.60 L59.00 23.80 A2.8 2.8 0 0 0 59.00 29.40 L59.00 34.60 A2.8 2.8 0 0 0 59.00 40.20 L59.00 45.40 A2.8 2.8 0 0 0 59.00 51.00 L59.00 56.20 A2.8 2.8 0 0 0 56.20 59.00 L51.00 59.00 A2.8 2.8 0 0 0 45.40 59.00 L40.20 59.00 A2.8 2.8 0 0 0 34.60 59.00 L29.40 59.00 A2.8 2.8 0 0 0 23.80 59.00 L18.60 59.00 A2.8 2.8 0 0 0 13.00 59.00 L7.80 59.00 A2.8 2.8 0 0 0 5.00 56.20 L5.00 51.00 A2.8 2.8 0 0 0 5.00 45.40 L5.00 40.20 A2.8 2.8 0 0 0 5.00 34.60 L5.00 29.40 A2.8 2.8 0 0 0 5.00 23.80 L5.00 18.60 A2.8 2.8 0 0 0 5.00 13.00 L5.00 7.80 A2.8 2.8 0 0 0 7.80 5.00 Z" fill="#F3EDE1" stroke="#12161C" stroke-width="0.8" stroke-linejoin="round"/>
<rect x="11" y="11" width="42" height="42" fill="#7A3B2E"/>
<text x="32" y="43" text-anchor="middle" font-family="'IBM Plex Sans','Helvetica Neue',sans-serif" font-size="26" letter-spacing="-1" fill="#F6EDE2"><tspan font-weight="200">S</tspan><tspan font-weight="600">P</tspan></text>
</svg>