<svg xmlns="http://www.w3.org/2000/svg" viewBox="0 0 220 100" width="220" height="100" role="img" aria-label="SelfPost">
<!-- SelfPost · https://codeberg.org/mix/selfpost · AGPL-3.0
     Шрифт: IBM Plex Sans (OFL). Перед публикацией текст перевести в контуры. -->
<path d="M10.20 8.00 L12.83 8.00 A2.2 2.2 0 0 0 17.23 8.00 L19.87 8.00 A2.2 2.2 0 0 0 24.27 8.00 L26.90 8.00 A2.2 2.2 0 0 0 31.30 8.00 L33.94 8.00 A2.2 2.2 0 0 0 38.34 8.00 L40.97 8.00 A2.2 2.2 0 0 0 45.37 8.00 L48.01 8.00 A2.2 2.2 0 0 0 52.41 8.00 L55.04 8.00 A2.2 2.2 0 0 0 59.44 8.00 L62.08 8.00 A2.2 2.2 0 0 0 66.48 8.00 L69.11 8.00 A2.2 2.2 0 0 0 73.51 8.00 L76.14 8.00 A2.2 2.2 0 0 0 80.54 8.00 L83.18 8.00 A2.2 2.2 0 0 0 87.58 8.00 L90.21 8.00 A2.2 2.2 0 0 0 94.61 8.00 L97.25 8.00 A2.2 2.2 0 0 0 101.65 8.00 L104.28 8.00 A2.2 2.2 0 0 0 108.68 8.00 L111.32 8.00 A2.2 2.2 0 0 0 115.72 8.00 L118.35 8.00 A2.2 2.2 0 0 0 122.75 8.00 L125.39 8.00 A2.2 2.2 0 0 0 129.79 8.00 L132.42 8.00 A2.2 2.2 0 0 0 136.82 8.00 L139.46 8.00 A2.2 2.2 0 0 0 143.86 8.00 L146.49 8.00 A2.2 2.2 0 0 0 150.89 8.00 L153.52 8.00 A2.2 2.2 0 0 0 157.92 8.00 L160.56 8.00 A2.2 2.2 0 0 0 164.96 8.00 L167.59 8.00 A2.2 2.2 0 0 0 171.99 8.00 L174.63 8.00 A2.2 2.2 0 0 0 179.03 8.00 L181.66 8.00 A2.2 2.2 0 0 0 186.06 8.00 L188.70 8.00 A2.2 2.2 0 0 0 193.10 8.00 L195.73 8.00 A2.2 2.2 0 0 0 200.13 8.00 L202.77 8.00 A2.2 2.2 0 0 0 207.17 8.00 L209.80 8.00 A2.2 2.2 0 0 0 212.00 10.20 L212.00 12.80 A2.2 2.2 0 0 0 212.00 17.20 L212.00 19.80 A2.2 2.2 0 0 0 212.00 24.20 L212.00 26.80 A2.2 2.2 0 0 0 212.00 31.20 L212.00 33.80 A2.2 2.2 0 0 0 212.00 38.20 L212.00 40.80 A2.2 2.2 0 0 0 212.00 45.20 L212.00 47.80 A2.2 2.2 0 0 0 212.00 52.20 L212.00 54.80 A2.2 2.2 0 0 0 212.00 59.20 L212.00 61.80 A2.2 2.2 0 0 0 212.00 66.20 L212.00 68.80 A2.2 2.2 0 0 0 212.00 73.20 L212.00 75.80 A2.2 2.2 0 0 0 212.00 80.20 L212.00 82.80 A2.2 2.2 0 0 0 212.00 87.20 L212.00 89.80 A2.2 2.2 0 0 0 209.80 92.00 L207.17 92.00 A2.2 2.2 0 0 0 202.77 92.00 L200.13 92.00 A2.2 2.2 0 0 0 195.73 92.00 L193.10 92.00 A2.2 2.2 0 0 0 188.70 92.00 L186.06 92.00 A2.2 2.2 0 0 0 181.66 92.00 L179.03 92.00 A2.2 2.2 0 0 0 174.63 92.00 L171.99 92.00 A2.2 2.2 0 0 0 167.59 92.00 L164.96 92.00 A2.2 2.2 0 0 0 160.56 92.00 L157.92 92.00 A2.2 2.2 0 0 0 153.52 92.00 L150.89 92.00 A2.2 2.2 0 0 0 146.49 92.00 L143.86 92.00 A2.2 2.2 0 0 0 139.46 92.00 L136.82 92.00 A2.2 2.2 0 0 0 132.42 92.00 L129.79 92.00 A2.2 2.2 0 0 0 125.39 92.00 L122.75 92.00 A2.2 2.2 0 0 0 118.35 92.00 L115.72 92.00 A2.2 2.2 0 0 0 111.32 92.00 L108.68 92.00 A2.2 2.2 0 0 0 104.28 92.00 L101.65 92.00 A2.2 2.2 0 0 0 97.25 92.00 L94.61 92.00 A2.2 2.2 0 0 0 90.21 92.00 L87.58 92.00 A2.2 2.2 0 0 0 83.18 92.00 L80.54 92.00 A2.2 2.2 0 0 0 76.14 92.00 L73.51 92.00 A2.2 2.2 0 0 0 69.11 92.00 L66.48 92.00 A2.2 2.2 0 0 0 62.08 92.00 L59.44 92.00 A2.2 2.2 0 0 0 55.04 92.00 L52.41 92.00 A2.2 2.2 0 0 0 48.01 92.00 L45.37 92.00 A2.2 2.2 0 0 0 40.97 92.00 L38.34 92.00 A2.2 2.2 0 0 0 33.94 92.00 L31.30 92.00 A2.2 2.2 0 0 0 26.90 92.00 L24.27 92.00 A2.2 2.2 0 0 0 19.87 92.00 L17.23 92.00 A2.2 2.2 0 0 0 12.83 92.00 L10.20 92.00 A2.2 2.2 0 0 0 8.00 89.80 L8.00 87.20 A2.2 2.2 0 0 0 8.00 82.80 L8.00 80.20 A2.2 2.2 0 0 0 8.00 75.80 L8.00 73.20 A2.2 2.2 0 0 0 8.00 68.80 L8.00 66.20 A2.2 2.2 0 0 0 8.00 61.80 L8.00 59.20 A2.2 2.2 0 0 0 8.00 54.80 L8.00 52.20 A2.2 2.2 0 0 0 8.00 47.80 L8.00 45.20 A2.2 2.2 0 0 0 8.00 40.80 L8.00 38.20 A2.2 2.2 0 0 0 8.00 33.80 L8.00 31.20 A2.2 2.2 0 0 0 8.00 26.80 L8.00 24.20 A2.2 2.2 0 0 0 8.00 19.80 L8.00 17.20 A2.2 2.2 0 0 0 8.00 12.80 L8.00 10.20 A2.2 2.2 0 0 0 10.20 8.00 Z" fill="#F3EDE1" stroke="#12161C" stroke-width="0.7" stroke-linejoin="round"/>
<rect x="15" y="15" width="190" height="70" fill="#7A3B2E"/>
<text x="110.0" y="66" text-anchor="middle" font-family="'IBM Plex Sans','Helvetica Neue',sans-serif" font-size="34" letter-spacing="-1.2" fill="#F6EDE2"><tspan font-weight="200">Self</tspan><tspan font-weight="600">Post</tspan></text>
</svg>