<svg xmlns="http://www.w3.org/2000/svg" viewBox="0 0 64 64" width="64" height="64" role="img" aria-label="SelfPost">
<!-- SelfPost · https://codeberg.org/mix/selfpost · AGPL-3.0
     Шрифт: IBM Plex Sans (OFL). Перед публикацией текст перевести в контуры. -->
<path d="M7.90 6.00 L10.60 6.00 A1.9 1.9 0 0 0 14.40 6.00 L17.10 6.00 A1.9 1.9 0 0 0 20.90 6.00 L23.60 6.00 A1.9 1.9 0 0 0 27.40 6.00 L30.10 6.00 A1.9 1.9 0 0 0 33.90 6.00 L36.60 6.00 A1.9 1.9 0 0 0 40.40 6.00 L43.10 6.00 A1.9 1.9 0 0 0 46.90 6.00 L49.60 6.00 A1.9 1.9 0 0 0 53.40 6.00 L56.10 6.00 A1.9 1.9 0 0 0 58.00 7.90 L58.00 10.60 A1.9 1.9 0 0 0 58.00 14.40 L58.00 17.10 A1.9 1.9 0 0 0 58.00 20.90 L58.00 23.60 A1.9 1.9 0 0 0 58.00 27.40 L58.00 30.10 A1.9 1.9 0 0 0 58.00 33.90 L58.00 36.60 A1.9 1.9 0 0 0 58.00 40.40 L58.00 43.10 A1.9 1.9 0 0 0 58.00 46.90 L58.00 49.60 A1.9 1.9 0 0 0 58.00 53.40 L58.00 56.10 A1.9 1.9 0 0 0 56.10 58.00 L53.40 58.00 A1.9 1.9 0 0 0 49.60 58.00 L46.90 58.00 A1.9 1.9 0 0 0 43.10 58.00 L40.40 58.00 A1.9 1.9 0 0 0 36.60 58.00 L33.90 58.00 A1.9 1.9 0 0 0 30.10 58.00 L27.40 58.00 A1.9 1.9 0 0 0 23.60 58.00 L20.90 58.00 A1.9 1.9 0 0 0 17.10 58.00 L14.40 58.00 A1.9 1.9 0 0 0 10.60 58.00 L7.90 58.00 A1.9 1.9 0 0 0 6.00 56.10 L6.00 53.40 A1.9 1.9 0 0 0 6.00 49.60 L6.00 46.90 A1.9 1.9 0 0 0 6.00 43.10 L6.00 40.40 A1.9 1.9 0 0 0 6.00 36.60 L6.00 33.90 A1.9 1.9 0 0 0 6.00 30.10 L6.00 27.40 A1.9 1.9 0 0 0 6.00 23.60 L6.00 20.90 A1.9 1.9 0 0 0 6.00 17.10 L6.00 14.40 A1.9 1.9 0 0 0 6.00 10.60 L6.00 7.90 A1.9 1.9 0 0 0 7.90 6.00 Z" fill="#F3EDE1" stroke="#12161C" stroke-width="0.6" stroke-linejoin="round"/>
<rect x="11" y="11" width="42" height="42" fill="#7A3B2E"/>
<text x="32" y="31" text-anchor="middle" font-family="'IBM Plex Sans','Helvetica Neue',sans-serif" font-size="14" font-weight="200" letter-spacing="-.4" fill="#F6EDE2">Self</text>
<text x="32" y="45" text-anchor="middle" font-family="'IBM Plex Sans','Helvetica Neue',sans-serif" font-size="14" font-weight="600" letter-spacing="-.4" fill="#F6EDE2">Post</text>
</svg>